<svg width="198" height="198" viewBox="0 0 198 198" fill="none" xmlns="http://www.w3.org/2000/svg">
<g clip-path="url(#clip0_7782_19306)">
<path d="M71.3106 13.8115C39.6271 13.8115 13.834 39.6046 13.834 71.2882C13.834 102.972 39.6048 128.765 71.3106 128.765C103.017 128.765 128.787 102.972 128.787 71.2882C128.787 39.6046 102.994 13.8115 71.3106 13.8115ZM71.3106 124.57C41.9476 124.57 18.051 100.674 18.051 71.3105C18.051 41.9474 41.9476 18.0286 71.3106 18.0286C100.674 18.0286 124.57 41.9251 124.57 71.2882C124.57 100.651 100.674 124.548 71.3106 124.548" fill="white"/>
<path d="M193.56 172.118L146.637 125.172C145.834 124.369 144.45 124.369 143.669 125.172L135.927 132.915L121.759 118.746C120.955 117.943 119.572 117.943 118.791 118.746C106.118 131.42 89.2718 138.404 71.3327 138.404C53.3935 138.404 36.57 131.42 23.8742 118.746C11.1785 106.073 4.21704 89.2049 4.21704 71.288C4.21704 53.3712 11.2008 36.503 23.8742 23.8296C36.5477 11.1562 53.3935 4.17241 71.3104 4.17241C89.2272 4.17241 106.073 11.1562 118.769 23.8296C140.746 45.8073 144.673 80.8377 128.095 107.077C127.471 108.059 127.761 109.353 128.742 109.978C129.724 110.602 131.018 110.312 131.643 109.308C149.538 80.9493 145.477 44.5801 121.714 20.8398C108.282 7.40771 90.3874 0 71.3104 0C52.2333 0 34.3387 7.40771 20.8844 20.8621C7.40771 34.3164 0 52.2333 0 71.288C0 90.3428 7.40771 108.26 20.8844 121.714C34.3387 135.168 52.2333 142.576 71.3104 142.576C88.7363 142.576 105.493 136.262 118.479 124.771L120.241 123.209L132.915 135.882L125.172 143.625C124.347 144.45 124.347 145.789 125.172 146.592L172.095 193.538C174.951 196.393 178.767 197.978 182.805 197.978C191.172 197.978 197.955 191.172 197.955 182.828C197.955 178.789 196.371 174.974 193.515 172.118M182.805 193.783C179.882 193.783 177.138 192.645 175.063 190.57L129.613 145.12L145.097 129.635L185.951 170.489L180.529 175.911C179.704 176.736 179.704 178.075 180.529 178.878C181.333 179.682 182.716 179.682 183.497 178.878L188.964 173.412L190.726 175.286C192.667 177.339 193.738 179.994 193.738 182.805C193.738 188.852 188.83 193.761 182.783 193.761" fill="white"/>
<path d="M72.6491 41.9918C72.2698 41.6572 71.7789 41.501 71.3104 41.501C70.8418 41.501 70.3509 41.6572 69.9716 41.9918L42.282 65.0628C41.6126 65.6207 41.3448 66.5578 41.6572 67.4056C41.9473 68.2312 42.7505 68.789 43.643 68.789H46.142V98.9777C46.142 100.138 47.0791 101.075 48.2394 101.075H94.3813C95.5416 101.075 96.4787 100.138 96.4787 98.9777V68.789H98.9777C99.8702 68.789 100.651 68.2312 100.963 67.4056C101.254 66.5801 101.008 65.643 100.339 65.0628L72.6491 41.9918ZM78.428 96.8803H64.1927V78.0263H78.428V96.8803ZM92.3732 66C92.3063 66.2231 92.2617 66.4462 92.2617 66.6916V96.8803H82.6227V75.9067C82.6227 74.7464 81.6856 73.8093 80.5254 73.8093H62.073C60.9128 73.8093 59.9757 74.7464 59.9757 75.9067V96.8803H50.3367V66.6916C50.3367 66.4685 50.2921 66.2231 50.2252 66L49.6674 64.3712L71.288 46.3428L92.9087 64.3712L92.3509 66H92.3732Z" fill="#50C2CC"/>
</g>
<defs>
<clipPath id="clip0_7782_19306">
<rect width="198" height="198" fill="white"/>
</clipPath>
</defs>
</svg>
