<svg width="40" height="40" viewBox="0 0 40 40" fill="none" xmlns="http://www.w3.org/2000/svg">
<path fill-rule="evenodd" clip-rule="evenodd" d="M35 20C35 28.2843 28.2843 35 20 35C16.8024 35 13.8384 33.9994 11.4042 32.2943L32.2943 11.4042C33.9994 13.8384 35 16.8024 35 20ZM7.84123 28.7862L28.7862 7.84123C26.3168 6.05371 23.2815 5 20 5C11.7157 5 5 11.7157 5 20C5 23.2815 6.05371 26.3168 7.84123 28.7862ZM40 20C40 31.0457 31.0457 40 20 40C8.9543 40 0 31.0457 0 20C0 8.9543 8.9543 0 20 0C31.0457 0 40 8.9543 40 20Z" fill="currentColor"/>
</svg>
