<svg width="24" height="24" viewBox="0 0 24 24" fill="none" xmlns="http://www.w3.org/2000/svg">
<path fill-rule="evenodd" clip-rule="evenodd" d="M12 24C18.6274 24 24 18.6274 24 12C24 5.37258 18.6274 0 12 0C5.37258 0 0 5.37258 0 12C0 18.6274 5.37258 24 12 24ZM16 5.40002C16 4.84774 15.5523 4.40002 15 4.40002H9C8.44772 4.40002 8 4.84774 8 5.40002V18.5111C8 19.0634 8.44772 19.5111 9 19.5111H15C15.5523 19.5111 16 19.0634 16 18.5111V5.40002ZM15.1111 16.8445V6.1778H8.88889V16.8445H15.1111Z" fill="#393D47"/>
</svg>
