<svg width="24" height="24" viewBox="0 0 24 24" fill="none" xmlns="http://www.w3.org/2000/svg">
<path fill-rule="evenodd" clip-rule="evenodd" d="M24 12C24 18.6274 18.6274 24 12 24C5.37258 24 0 18.6274 0 12C0 5.37258 5.37258 0 12 0C18.6274 0 24 5.37258 24 12ZM16.0527 6.42783V5.5H14.1811V6.42783H9.81897V5.5H7.94737V6.42783H5V17.9444H19V6.42783H16.0527ZM6.81058 16.5V9.63835H17.1895V16.5H6.81058ZM11.276 15.6L15 11.3417L14.179 10.6L11.2709 13.9253L9.81646 12.2826L9 13.0295L11.276 15.6Z" fill="#393D47"/>
</svg>
