<svg width="24" height="24" viewBox="0 0 24 24" fill="none" xmlns="http://www.w3.org/2000/svg">
<path d="M7.4543 9.47085C7.13003 9.15646 7.13236 8.63544 7.45944 8.32397L12.0001 4L16.5405 8.32398C16.8676 8.63545 16.8699 9.15645 16.5457 9.47084C16.2403 9.76686 15.7561 9.77029 15.4467 9.4786L12.0001 6.23026L8.5533 9.47863C8.24381 9.7703 7.75962 9.76687 7.4543 9.47085Z" fill="#393D47"/>
<path d="M16.5457 14.5292C16.87 14.8435 16.8676 15.3646 16.5406 15.676L11.9999 20L7.45946 15.676C7.13239 15.3646 7.13006 14.8435 7.45433 14.5292C7.75966 14.2331 8.24385 14.2297 8.55334 14.5214L11.9999 17.7697L15.4467 14.5214C15.7562 14.2297 16.2404 14.2331 16.5457 14.5292Z" fill="#393D47"/>
</svg>
