<svg width="32" height="32" viewBox="0 0 32 32" fill="none" xmlns="http://www.w3.org/2000/svg">
<mask id="mask0_5743_1524" style="mask-type:luminance" maskUnits="userSpaceOnUse" x="0" y="0" width="32" height="32">
<path d="M15.9999 2.88248C20.2722 2.88248 20.7782 2.89848 22.4655 2.97554C24.0256 3.04671 24.8728 3.30708 25.4365 3.52636C26.1837 3.81681 26.7165 4.16307 27.2764 4.72297C27.8362 5.28288 28.1832 5.81577 28.473 6.56283C28.6923 7.12657 28.9527 7.97373 29.0238 9.53388C29.1008 11.2212 29.1169 11.727 29.1169 15.9994C29.1169 20.2718 29.1009 20.7776 29.0238 22.4648C28.9527 24.025 28.6923 24.8721 28.473 25.4359C28.1826 26.1831 27.8363 26.7158 27.2764 27.2757C26.7165 27.8355 26.1836 28.1826 25.4365 28.4724C24.8728 28.6916 24.0256 28.952 22.4655 29.0232C20.7783 29.1001 20.2723 29.1162 15.9999 29.1162C11.7276 29.1162 11.2218 29.1002 9.53452 29.0232C7.97437 28.952 7.12721 28.6916 6.56347 28.4724C5.81628 28.1818 5.28352 27.8355 4.72361 27.2757C4.16383 26.7158 3.8168 26.1829 3.527 25.4359C3.30759 24.8721 3.04735 24.025 2.97618 22.4648C2.89925 20.7777 2.88312 20.2717 2.88312 15.9994C2.88312 11.7272 2.89912 11.2213 2.97618 9.53388C3.04735 7.97373 3.30772 7.12657 3.527 6.56283C3.81745 5.81564 4.16371 5.28288 4.72361 4.72297C5.28352 4.16319 5.81641 3.81617 6.56347 3.52636C7.12721 3.30708 7.97437 3.04671 9.53452 2.97554C11.2217 2.89925 11.7277 2.88248 15.9999 2.88248ZM15.9999 0C11.6546 0 11.1095 0.0185611 9.40306 0.0961338C7.69979 0.173706 6.5371 0.444443 5.51943 0.839986C4.46708 1.2491 3.57513 1.7962 2.6856 2.6856C1.7962 3.57513 1.24859 4.46708 0.839986 5.51943C0.444315 6.53722 0.173706 7.70043 0.0961338 9.40306C0.0185611 11.1097 0 11.6547 0 15.9999C0 20.3452 0.0185611 20.8903 0.0961338 22.5968C0.173706 24.3001 0.444443 25.4628 0.839986 26.4804C1.2491 27.5328 1.7962 28.4247 2.6856 29.3143C3.57513 30.2038 4.46772 30.7508 5.51943 31.1599C6.53722 31.5556 7.70043 31.8262 9.40306 31.9037C11.1095 31.9813 11.6546 31.9999 15.9999 31.9999C20.3453 31.9999 20.8903 31.9813 22.5968 31.9037C24.3001 31.8262 25.4628 31.5554 26.4804 31.1599C27.5328 30.7506 28.4247 30.2037 29.3143 29.3143C30.2038 28.4247 30.7508 27.5321 31.1599 26.4804C31.5556 25.4628 31.8262 24.2994 31.9037 22.5968C31.9813 20.8903 31.9999 20.3453 31.9999 15.9999C31.9999 11.6546 31.9813 11.1095 31.9037 9.40306C31.8262 7.69979 31.5554 6.5371 31.1599 5.51943C30.7506 4.46708 30.2037 3.57513 29.3143 2.6856C28.4247 1.7962 27.5321 1.2491 26.4804 0.839986C25.4628 0.444315 24.2994 0.173706 22.5968 0.0961338C20.8905 0.0185611 20.3453 0 15.9999 0ZM15.9999 7.78389C11.4622 7.78389 7.78389 11.4622 7.78389 15.9999C7.78389 20.5377 11.4622 24.2161 15.9999 24.2161C20.5377 24.2161 24.2161 20.5377 24.2161 15.9999C24.2161 11.4622 20.5377 7.78389 15.9999 7.78389ZM15.9999 21.3336C13.0546 21.3336 10.6664 18.9462 10.6664 16.0001C10.6664 13.054 13.0546 10.6665 15.9999 10.6665C18.9453 10.6665 21.3335 13.054 21.3335 16.0001C21.3335 18.9462 18.9453 21.3336 15.9999 21.3336ZM24.5406 5.5394C23.4799 5.5394 22.6206 6.39872 22.6206 7.45939C22.6206 8.52006 23.4799 9.37951 24.5406 9.37951C25.6013 9.37951 26.4607 8.52006 26.4607 7.45939C26.4607 6.39872 25.6014 5.5394 24.5406 5.5394Z" fill="white"/>
</mask>
<g mask="url(#mask0_5743_1524)">
<rect x="-9.0022" y="-9.00391" width="49.923" height="49.923" fill="white"/>
</g>
</svg>
